<?xml version="1.0" standalone="no"?>
<!DOCTYPE svg PUBLIC "-//W3C//DTD SVG 20010904//EN"
 "http://www.w3.org/TR/2001/REC-SVG-20010904/DTD/svg10.dtd">
<svg version="1.0" xmlns="http://www.w3.org/2000/svg"
 width="64.000000pt" height="64.000000pt" viewBox="0 0 64.000000 64.000000"
 preserveAspectRatio="xMidYMid meet">

<g transform="translate(0.000000,64.000000) scale(0.100000,-0.100000)"
fill="#000000" stroke="none">
<path d="M171 519 c-80 -49 -149 -93 -154 -98 -6 -6 -1 -12 15 -16 19 -5 53
11 156 74 l132 81 132 -81 c104 -63 137 -79 156 -74 21 5 23 8 11 19 -15 14
-295 186 -301 185 -1 0 -68 -41 -147 -90z"/>
<path d="M130 268 l0 -135 56 -6 c31 -3 73 -14 95 -25 39 -19 39 -19 78 0 22
11 64 22 95 25 l56 6 0 135 0 135 -60 -6 c-33 -4 -76 -13 -95 -21 -31 -13 -39
-13 -70 0 -19 8 -62 17 -95 21 l-60 6 0 -135z"/>
<path d="M87 343 c-4 -3 -7 -70 -7 -148 l0 -142 50 11 c36 7 67 6 112 -2 77
-15 79 -15 156 0 45 8 76 9 112 2 l51 -11 -3 145 c-2 105 -6 147 -15 150 -10
3 -13 -26 -13 -121 l0 -125 -72 -4 c-40 -2 -88 -11 -105 -20 -31 -15 -35 -15
-65 0 -18 9 -66 18 -105 20 l-73 4 0 124 c0 113 -5 136 -23 117z"/>
</g>
</svg>
